<?xml version="1.0" standalone="no"?>
<!DOCTYPE svg PUBLIC "-//W3C//DTD SVG 20010904//EN"
 "http://www.w3.org/TR/2001/REC-SVG-20010904/DTD/svg10.dtd">
<svg version="1.0" xmlns="http://www.w3.org/2000/svg"
 width="200.000000pt" height="200.000000pt" viewBox="0 0 200.000000 200.000000"
 preserveAspectRatio="xMidYMid meet">

<g transform="translate(0.000000,200.000000) scale(0.100000,-0.100000)"
fill="#000000" stroke="none">
<path d="M0 1000 l0 -1000 1000 0 1000 0 0 1000 0 1000 -1000 0 -1000 0 0
-1000z m1980 965 l0 -25 -975 0 -975 0 -3 -942 -2 -943 -3 968 -2 967 980 0
980 0 0 -25z m-540 -1400 l-435 -435 -435 435 -435 435 435 435 435 435 435
-435 435 -435 -435 -435z"/>
<path d="M1135 1400 c-98 -14 -179 -75 -236 -176 l-30 -52 -87 -6 c-110 -9
-184 -29 -244 -68 -98 -62 -155 -182 -129 -270 51 -173 244 -192 359 -35 22
29 68 103 103 164 l64 113 52 0 52 0 -25 -60 c-29 -73 -30 -90 -4 -118 18 -19
31 -22 100 -22 67 0 83 3 100 20 38 38 20 70 -44 77 -25 3 -46 8 -46 11 0 4 7
26 16 49 16 41 19 43 58 43 44 0 69 13 79 43 8 22 -25 57 -53 57 -11 0 -20 4
-20 8 0 4 16 47 35 95 37 92 37 113 -2 128 -26 10 -25 10 -98 -1z m-31 -169
l-27 -61 -44 0 -45 0 34 48 c29 40 94 89 105 78 2 -2 -8 -31 -23 -65z m-312
-193 c-11 -18 -39 -67 -63 -108 -57 -100 -88 -130 -133 -130 -49 0 -76 28 -76
80 0 109 100 182 258 189 l34 1 -20 -32z"/>
<path d="M1335 1156 l-25 -25 20 -52 21 -52 -39 -41 c-35 -36 -62 -75 -62 -90
0 -10 32 -36 46 -36 8 0 34 18 58 40 l43 39 16 -35 c21 -43 40 -51 72 -30 30
20 31 31 5 91 l-20 48 50 53 c55 58 59 72 31 98 -25 23 -48 15 -91 -29 l-34
-35 -20 37 c-27 47 -40 50 -71 19z"/>
</g>
</svg>
